<mxfile host="app.diagrams.net" modified="2023-11-27T11:41:08.650Z" agent="Mozilla/5.0 (Macintosh; Intel Mac OS X 10_15_7) AppleWebKit/537.36 (KHTML, like Gecko) Chrome/119.0.0.0 Safari/537.36" etag="cKHnkD8E-x7M-f1rClf8" version="22.1.4" type="github">
  <diagram id="C5RBs43oDa-KdzZeNtuy" name="Page-1">
    <mxGraphModel dx="2171" dy="1011" grid="1" gridSize="10" guides="1" tooltips="1" connect="1" arrows="1" fold="1" page="1" pageScale="1" pageWidth="827" pageHeight="1169" math="0" shadow="0">
      <root>
        <mxCell id="WIyWlLk6GJQsqaUBKTNV-0" />
        <mxCell id="WIyWlLk6GJQsqaUBKTNV-1" parent="WIyWlLk6GJQsqaUBKTNV-0" />
        <mxCell id="qZGvBIlt3isVs_8e7VKc-0" value="&lt;font style=&quot;font-size: 18px;&quot;&gt;manual ios deployment&lt;/font&gt;" style="rounded=0;whiteSpace=wrap;html=1;" vertex="1" parent="WIyWlLk6GJQsqaUBKTNV-1">
          <mxGeometry x="40" y="40" width="290" height="60" as="geometry" />
        </mxCell>
        <mxCell id="qZGvBIlt3isVs_8e7VKc-1" value="" style="endArrow=classic;html=1;rounded=0;exitX=0.5;exitY=1;exitDx=0;exitDy=0;" edge="1" parent="WIyWlLk6GJQsqaUBKTNV-1" source="qZGvBIlt3isVs_8e7VKc-0">
          <mxGeometry width="50" height="50" relative="1" as="geometry">
            <mxPoint x="440" y="290" as="sourcePoint" />
            <mxPoint x="185" y="200" as="targetPoint" />
          </mxGeometry>
        </mxCell>
        <mxCell id="qZGvBIlt3isVs_8e7VKc-5" value="" style="edgeStyle=orthogonalEdgeStyle;rounded=0;orthogonalLoop=1;jettySize=auto;html=1;" edge="1" parent="WIyWlLk6GJQsqaUBKTNV-1" source="qZGvBIlt3isVs_8e7VKc-2" target="qZGvBIlt3isVs_8e7VKc-4">
          <mxGeometry relative="1" as="geometry" />
        </mxCell>
        <mxCell id="qZGvBIlt3isVs_8e7VKc-11" value="" style="edgeStyle=orthogonalEdgeStyle;rounded=0;orthogonalLoop=1;jettySize=auto;html=1;" edge="1" parent="WIyWlLk6GJQsqaUBKTNV-1" source="qZGvBIlt3isVs_8e7VKc-2" target="qZGvBIlt3isVs_8e7VKc-10">
          <mxGeometry relative="1" as="geometry" />
        </mxCell>
        <mxCell id="qZGvBIlt3isVs_8e7VKc-2" value="&lt;font style=&quot;font-size: 18px;&quot;&gt;open ios folder in xcode&lt;/font&gt;" style="rounded=0;whiteSpace=wrap;html=1;" vertex="1" parent="WIyWlLk6GJQsqaUBKTNV-1">
          <mxGeometry x="40" y="200" width="280" height="60" as="geometry" />
        </mxCell>
        <mxCell id="qZGvBIlt3isVs_8e7VKc-7" value="" style="edgeStyle=orthogonalEdgeStyle;rounded=0;orthogonalLoop=1;jettySize=auto;html=1;" edge="1" parent="WIyWlLk6GJQsqaUBKTNV-1" source="qZGvBIlt3isVs_8e7VKc-4" target="qZGvBIlt3isVs_8e7VKc-6">
          <mxGeometry relative="1" as="geometry" />
        </mxCell>
        <mxCell id="qZGvBIlt3isVs_8e7VKc-4" value="&lt;font style=&quot;font-size: 18px;&quot;&gt;build app for generic ios device&lt;/font&gt;" style="whiteSpace=wrap;html=1;rounded=0;" vertex="1" parent="WIyWlLk6GJQsqaUBKTNV-1">
          <mxGeometry x="40" y="340" width="280" height="60" as="geometry" />
        </mxCell>
        <mxCell id="qZGvBIlt3isVs_8e7VKc-9" value="" style="edgeStyle=orthogonalEdgeStyle;rounded=0;orthogonalLoop=1;jettySize=auto;html=1;" edge="1" parent="WIyWlLk6GJQsqaUBKTNV-1" source="qZGvBIlt3isVs_8e7VKc-6" target="qZGvBIlt3isVs_8e7VKc-8">
          <mxGeometry relative="1" as="geometry" />
        </mxCell>
        <mxCell id="qZGvBIlt3isVs_8e7VKc-6" value="&lt;font style=&quot;font-size: 18px;&quot;&gt;archieve&lt;/font&gt;" style="whiteSpace=wrap;html=1;rounded=0;" vertex="1" parent="WIyWlLk6GJQsqaUBKTNV-1">
          <mxGeometry x="30" y="480" width="290" height="60" as="geometry" />
        </mxCell>
        <mxCell id="qZGvBIlt3isVs_8e7VKc-8" value="&lt;font style=&quot;font-size: 18px;&quot;&gt;distribute the app to app store&lt;/font&gt;" style="rounded=0;whiteSpace=wrap;html=1;" vertex="1" parent="WIyWlLk6GJQsqaUBKTNV-1">
          <mxGeometry x="40" y="620" width="280" height="60" as="geometry" />
        </mxCell>
        <mxCell id="qZGvBIlt3isVs_8e7VKc-13" value="" style="edgeStyle=orthogonalEdgeStyle;rounded=0;orthogonalLoop=1;jettySize=auto;html=1;" edge="1" parent="WIyWlLk6GJQsqaUBKTNV-1" source="qZGvBIlt3isVs_8e7VKc-10" target="qZGvBIlt3isVs_8e7VKc-12">
          <mxGeometry relative="1" as="geometry" />
        </mxCell>
        <mxCell id="qZGvBIlt3isVs_8e7VKc-10" value="&lt;font style=&quot;font-size: 18px;&quot;&gt;update build number&amp;nbsp;&lt;br&gt;update version name&amp;nbsp;&lt;/font&gt;" style="whiteSpace=wrap;html=1;rounded=0;" vertex="1" parent="WIyWlLk6GJQsqaUBKTNV-1">
          <mxGeometry x="480" y="200" width="240" height="60" as="geometry" />
        </mxCell>
        <mxCell id="qZGvBIlt3isVs_8e7VKc-15" value="" style="edgeStyle=orthogonalEdgeStyle;rounded=0;orthogonalLoop=1;jettySize=auto;html=1;" edge="1" parent="WIyWlLk6GJQsqaUBKTNV-1" source="qZGvBIlt3isVs_8e7VKc-12" target="qZGvBIlt3isVs_8e7VKc-14">
          <mxGeometry relative="1" as="geometry" />
        </mxCell>
        <mxCell id="qZGvBIlt3isVs_8e7VKc-12" value="&lt;font style=&quot;font-size: 18px;&quot;&gt;ios native integration with 3rd party like firebase&lt;/font&gt;" style="rounded=0;whiteSpace=wrap;html=1;" vertex="1" parent="WIyWlLk6GJQsqaUBKTNV-1">
          <mxGeometry x="480" y="340" width="240" height="60" as="geometry" />
        </mxCell>
        <mxCell id="qZGvBIlt3isVs_8e7VKc-14" value="&lt;font style=&quot;font-size: 18px;&quot;&gt;solve any issue related&amp;nbsp;&lt;/font&gt;" style="whiteSpace=wrap;html=1;rounded=0;" vertex="1" parent="WIyWlLk6GJQsqaUBKTNV-1">
          <mxGeometry x="480" y="480" width="240" height="60" as="geometry" />
        </mxCell>
        <mxCell id="qZGvBIlt3isVs_8e7VKc-18" value="" style="endArrow=classic;html=1;rounded=0;" edge="1" parent="WIyWlLk6GJQsqaUBKTNV-1">
          <mxGeometry width="50" height="50" relative="1" as="geometry">
            <mxPoint x="460" y="510" as="sourcePoint" />
            <mxPoint x="330" y="370" as="targetPoint" />
          </mxGeometry>
        </mxCell>
        <mxCell id="qZGvBIlt3isVs_8e7VKc-19" value="&lt;font style=&quot;font-size: 24px;&quot;&gt;problems during building for IOS&amp;nbsp;&lt;/font&gt;" style="rounded=0;whiteSpace=wrap;html=1;" vertex="1" parent="WIyWlLk6GJQsqaUBKTNV-1">
          <mxGeometry x="140" y="720" width="580" height="60" as="geometry" />
        </mxCell>
        <mxCell id="qZGvBIlt3isVs_8e7VKc-20" value="&lt;font size=&quot;3&quot;&gt;installing ios packages (cocopod not found )&lt;/font&gt;" style="rounded=0;whiteSpace=wrap;html=1;" vertex="1" parent="WIyWlLk6GJQsqaUBKTNV-1">
          <mxGeometry x="80" y="840" width="400" height="60" as="geometry" />
        </mxCell>
        <mxCell id="qZGvBIlt3isVs_8e7VKc-31" value="" style="edgeStyle=orthogonalEdgeStyle;rounded=0;orthogonalLoop=1;jettySize=auto;html=1;" edge="1" parent="WIyWlLk6GJQsqaUBKTNV-1" source="qZGvBIlt3isVs_8e7VKc-21">
          <mxGeometry relative="1" as="geometry">
            <mxPoint x="720" y="950" as="targetPoint" />
          </mxGeometry>
        </mxCell>
        <mxCell id="qZGvBIlt3isVs_8e7VKc-21" value="&lt;font style=&quot;font-size: 18px;&quot;&gt;flutter.h could not be found&amp;nbsp;&lt;/font&gt;" style="rounded=0;whiteSpace=wrap;html=1;" vertex="1" parent="WIyWlLk6GJQsqaUBKTNV-1">
          <mxGeometry x="80" y="920" width="400" height="60" as="geometry" />
        </mxCell>
        <mxCell id="qZGvBIlt3isVs_8e7VKc-22" value="&lt;font style=&quot;font-size: 18px;&quot;&gt;when apple update xcode /new ios version&lt;/font&gt;" style="rounded=0;whiteSpace=wrap;html=1;" vertex="1" parent="WIyWlLk6GJQsqaUBKTNV-1">
          <mxGeometry x="80" y="1000" width="400" height="60" as="geometry" />
        </mxCell>
        <mxCell id="qZGvBIlt3isVs_8e7VKc-23" value="&lt;font style=&quot;font-size: 18px;&quot;&gt;randomly happening&lt;/font&gt;" style="rounded=0;whiteSpace=wrap;html=1;" vertex="1" parent="WIyWlLk6GJQsqaUBKTNV-1">
          <mxGeometry x="720" y="920" width="230" height="60" as="geometry" />
        </mxCell>
        <mxCell id="qZGvBIlt3isVs_8e7VKc-25" value="" style="endArrow=none;html=1;rounded=0;exitX=1;exitY=0.5;exitDx=0;exitDy=0;" edge="1" parent="WIyWlLk6GJQsqaUBKTNV-1" source="qZGvBIlt3isVs_8e7VKc-22">
          <mxGeometry width="50" height="50" relative="1" as="geometry">
            <mxPoint x="440" y="1050" as="sourcePoint" />
            <mxPoint x="490" y="870" as="targetPoint" />
            <Array as="points">
              <mxPoint x="710" y="950" />
            </Array>
          </mxGeometry>
        </mxCell>
        <mxCell id="qZGvBIlt3isVs_8e7VKc-32" value="&lt;font style=&quot;font-size: 18px;&quot;&gt;beside these problems we had an issue in resources/support&lt;/font&gt;" style="rounded=0;whiteSpace=wrap;html=1;" vertex="1" parent="WIyWlLk6GJQsqaUBKTNV-1">
          <mxGeometry x="160" y="1160" width="640" height="80" as="geometry" />
        </mxCell>
      </root>
    </mxGraphModel>
  </diagram>
</mxfile>
